<svg width="171" height="140" xmlns="http://www.w3.org/2000/svg" version="1.1" xmlns:xlink="http://www.w3.org/1999/xlink" xmlns:svgjs="http://svgjs.dev/svgjs" viewBox="0 0 9.53704109810928 8.498024833167085"><g transform="matrix(1,0,0,1,0.7499634201483891,6.683061413018695)"><g><path d=" M 1.0215 0.00749999999999984 L 0.5535 1.0574999999999999 L 0.47700000000000004 1.0574999999999999 L 0.009000000000000001 0.00749999999999984 L 0.093 0.00749999999999984 L 0.5175 0.9584999999999999 L 0.9420000000000001 0.00749999999999984 L 1.0215 0.00749999999999984 M 1.2059956054687502 0.00749999999999984 L 1.2824956054687502 0.00749999999999984 L 1.2824956054687502 1.0574999999999999 L 1.2059956054687502 1.0574999999999999 L 1.2059956054687502 0.00749999999999984 M 1.6634699707031253 0.00749999999999984 L 1.7399699707031253 0.00749999999999984 L 1.7399699707031253 0.9884999999999999 L 2.344469970703125 0.9884999999999999 L 2.344469970703125 1.0574999999999999 L 1.6634699707031253 1.0574999999999999 L 1.6634699707031253 0.00749999999999984 M 3.2069677734375004 0.7619999999999999 L 2.5979677734375004 0.7619999999999999 L 2.4644677734375002 1.0574999999999999 L 2.3819677734375 1.0574999999999999 L 2.8649677734375003 0.00749999999999984 L 2.9414677734375005 0.00749999999999984 L 3.4244677734375006 1.0574999999999999 L 3.3419677734375 1.0574999999999999 L 3.2069677734375004 0.7619999999999999 M 3.1784677734375 0.6974999999999999 L 2.9024677734375004 0.09149999999999991 L 2.6279677734375 0.6974999999999999 L 3.1784677734375 0.6974999999999999 M 4.196271972656251 0.9959999999999999 Q 4.072521972656251 0.9269999999999998 4.001271972656251 0.8054999999999999 Q 3.9300219726562506 0.6839999999999999 3.9300219726562506 0.5324999999999999 Q 3.9300219726562506 0.3809999999999999 4.001271972656251 0.25949999999999984 Q 4.072521972656251 0.1379999999999999 4.196271972656251 0.06899999999999984 Q 4.32002197265625 -2.220446049250313e-16 4.474521972656251 -2.220446049250313e-16 Q 4.588521972656251 -2.220446049250313e-16 4.684521972656251 0.03674999999999984 Q 4.780521972656251 0.0734999999999999 4.848021972656251 0.14549999999999985 L 4.800021972656251 0.19499999999999984 Q 4.67402197265625 0.0704999999999999 4.477521972656251 0.0704999999999999 Q 4.34552197265625 0.0704999999999999 4.237521972656251 0.13049999999999984 Q 4.129521972656251 0.1904999999999999 4.0680219726562505 0.2962499999999999 Q 4.006521972656251 0.4019999999999999 4.006521972656251 0.5324999999999999 Q 4.006521972656251 0.6629999999999998 4.0680219726562505 0.7687499999999998 Q 4.129521972656251 0.8744999999999998 4.237521972656251 0.9344999999999999 Q 4.34552197265625 0.9944999999999999 4.477521972656251 0.9944999999999999 Q 4.67252197265625 0.9944999999999999 4.800021972656251 0.8684999999999998 L 4.848021972656251 0.9179999999999999 Q 4.780521972656251 0.9899999999999999 4.683771972656251 1.0274999999999999 Q 4.587021972656251 1.065 4.474521972656251 1.065 Q 4.32002197265625 1.065 4.196271972656251 0.9959999999999999 M 5.974527099609376 0.00749999999999984 L 5.974527099609376 1.0574999999999999 L 5.898027099609376 1.0574999999999999 L 5.898027099609376 0.5579999999999998 L 5.196027099609376 0.5579999999999998 L 5.196027099609376 1.0574999999999999 L 5.119527099609376 1.0574999999999999 L 5.119527099609376 0.00749999999999984 L 5.196027099609376 0.00749999999999984 L 5.196027099609376 0.4904999999999998 L 5.898027099609376 0.4904999999999998 L 5.898027099609376 0.00749999999999984 L 5.974527099609376 0.00749999999999984 M 7.00506591796875 0.7619999999999999 L 6.39606591796875 0.7619999999999999 L 6.26256591796875 1.0574999999999999 L 6.180065917968751 1.0574999999999999 L 6.66306591796875 0.00749999999999984 L 6.739565917968751 0.00749999999999984 L 7.22256591796875 1.0574999999999999 L 7.140065917968751 1.0574999999999999 L 7.00506591796875 0.7619999999999999 M 6.976565917968751 0.6974999999999999 L 6.700565917968751 0.09149999999999991 L 6.42606591796875 0.6974999999999999 L 6.976565917968751 0.6974999999999999 M 7.576631835937501 0.0764999999999999 L 7.198631835937501 0.0764999999999999 L 7.198631835937501 0.00749999999999984 L 8.0311318359375 0.00749999999999984 L 8.0311318359375 0.0764999999999999 L 7.653131835937501 0.0764999999999999 L 7.653131835937501 1.0574999999999999 L 7.576631835937501 1.0574999999999999 L 7.576631835937501 0.0764999999999999" fill="#ffffff" fill-rule="nonzero"></path></g><g></g><g clip-path="url(#SvgjsClipPath1001)"><g clip-path="url(#SvgjsClipPath100033eb5516-d676-40c0-9738-1f63c1065332)"><path d=" M 1.690836287275439 -3.992045808386485 L 0.6567102473341448 -3.4566292957487703 L 0.6567102473341448 -0.506912117991031 L 1.690836287275439 -0.506912117991031 Z" fill="#4ebdd9" transform="matrix(1,0,0,1,0,0)" fill-rule="nonzero"></path></g><g clip-path="url(#SvgjsClipPath100033eb5516-d676-40c0-9738-1f63c1065332)"><path d=" M 2.818778573524773 -5.933097992870306 L 1.1282112850375445 -5.066444063285168 L 1.1282112850375445 -3.79582875717477 L 1.7763804238830432 -4.142374792268102 L 2.258585848709613 -3.5924439765769547 L 2.258585848709613 -0.25002223112975575 L 2.8187946202943177 -0.25002223112975575 L 2.8187946202943177 -5.933097992870306 Z" fill="#4ebdd9" transform="matrix(1,0,0,1,0,0)" fill-rule="nonzero"></path></g><g clip-path="url(#SvgjsClipPath100033eb5516-d676-40c0-9738-1f63c1065332)"><path d=" M 3.5690050363962915 -5.1100049731748465 L 3.450258941763459 -5.2783436090864315 L 3.450258941763459 -0.5176201140216348 L 3.5690050363962915 -0.5176201140216348 Z" fill="#4ebdd9" transform="matrix(1,0,0,1,0,0)" fill-rule="nonzero"></path></g><g clip-path="url(#SvgjsClipPath100033eb5516-d676-40c0-9738-1f63c1065332)"><path d=" M 1.9358590357069558 -0.371253705508499 L 8.279552035030449e-7 -0.371253705508499 L 8.279552035030449e-7 -0.24999629144187718 L 2.054781644804783 -0.24999629144187718 L 2.054781644804783 -3.640766953528093 L 1.932104091633431 -3.801154415130142 Z" fill="#4ebdd9" transform="matrix(1,0,0,1,0,0)" fill-rule="nonzero"></path></g><g clip-path="url(#SvgjsClipPath100033eb5516-d676-40c0-9738-1f63c1065332)"><path d=" M 3.0935099841942777 -0.26069921034213994 L 3.1077193986263554 -0.26069921034213994 L 3.1077193986263554 -0.24999601505563973 L 4.42668362137577 -0.24999601505563973 L 4.42668362137577 -0.37125342912226067 L 3.21225607882711 -0.37125342912226067 L 3.21225607882711 -5.569139066900876 L 3.0935099841942777 -5.737477702812461 Z" fill="#4ebdd9" transform="matrix(1,0,0,1,0,0)" fill-rule="nonzero"></path></g></g></g><defs><clipPath id="SvgjsClipPath1001"><path d=" M 0 -5.933097992870306 h 4.426680936764573 v 5.683097992870306 h -4.426680936764573 Z"></path></clipPath><clipPath id="SvgjsClipPath100033eb5516-d676-40c0-9738-1f63c1065332"><path d=" M 3.931682478932228e-16 -5.933097992870306 L 4.426680936764573 -5.933097992870306 L 4.426680936764573 -0.25 L 7.863364957864456e-16 -0.25 Z"></path></clipPath><linearGradient id="paint0_linear_120_1360" x1="15" y1="3" x2="15" y2="33" gradientUnits="userSpaceOnUse">
<stop stop-color="#877EFF"/>
<stop offset="0.461458" stop-color="#685DFF"/>
<stop offset="1" stop-color="#3121FF"/>
</linearGradient></defs></svg>